<svg xmlns="http://www.w3.org/2000/svg" viewBox="0 0 512 512"><!--!Font Awesome Free 6.7.2 by @fontawesome - https://fontawesome.com License - https://fontawesome.com/license/free Copyright 2025 Fonticons, Inc.--><path d="M340.5 466.4c-1.5 0-6.9 .5-9.2 .5-116.3 0-210.8-94.6-210.8-210.8S215 45.2 331.3 45.2c2.3 0 7.7 .5 9.2 .5 7.1 0 13.3-5 14.8-12.1 1.5-7.3-2.6-14.5-9.5-17.1C316.6 5.5 286.4 0 256 0 114.8 0 0 114.8 0 256s114.8 256 256 256c30.2 0 60.3-5.5 89.3-16.3 6-2 10.3-7.6 10.3-14.3 0-8.1-6.4-15.1-15.1-15.1zm163-252.5l-76.4-11.1-34.2-69.2c-1.8-3.7-5.4-5.6-8.9-5.6s-7.1 1.9-8.9 5.6l-34.2 69.2-76.4 11.1c-8.2 1.2-11.4 11.2-5.5 17l55.3 53.9-13.1 76.1c-1.1 6.4 4 11.7 9.8 11.7 1.5 0 3.1-.4 4.6-1.2L384 335.4l68.3 35.9c1.5 .8 3.1 1.2 4.6 1.2 5.8 0 10.9-5.2 9.8-11.7l-13.1-76.1 55.3-53.9c5.9-5.8 2.7-15.8-5.5-17z"/></svg>